#Comment line ignore any data following # character 
#Hierarchical Translation and Rotation (.htr) file 
[Header]	
#Header keywords are followed by a single value 
FileType HTR		#Single word string
DataType HTRS		#Translation followed by rotation and scale data
FileVersion 1		#integer
NumSegments 84		#integer
NumFrames 2		#integer
DataFrameRate 30		#integer, data frame rate in this file
EulerRotationOrder ZYX
CalibrationUnits mm
RotationUnits Degrees
GlobalAxisofGravity Y
BoneLengthAxis Y
ScaleFactor 1.00
[SegmentNames&Hierarchy]
#CHILD	PARENT
MASTER GLOBAL
root MASTER
chest root
L_mid_tent01 root
R_mid_tent01 root
spine01 root
Bip01_Neck chest
L_humerus chest
R_humerus chest
weapon_bone chest
Bip01_Head Bip01_Neck
eye_left_bone Bip01_Head
eye_right_bone Bip01_Head
L_forearm L_humerus
L_front_hand L_forearm
L_weapon_bone L_forearm
L_front_hand01_01 L_front_hand
L_front_hand02_01 L_front_hand
L_front_hand03_01 L_front_hand
L_front_hand01_02 L_front_hand01_01
L_front_hand02_02 L_front_hand02_01
L_front_hand03_02 L_front_hand03_01
R_forearm R_humerus
R_front_hand R_forearm
R_weapon_bone R_forearm
R_front_hand01_01 R_front_hand
R_front_hand02_01 R_front_hand
R_front_hand03_01 R_front_hand
R_front_hand01_02 R_front_hand01_01
R_front_hand02_02 R_front_hand02_01
R_front_hand03_02 R_front_hand03_01
null_rope01_connect L_mid_tent01
Rope1_Seg01 null_rope01_connect
Rope1_Seg02 Rope1_Seg01
Rope1_Seg03 Rope1_Seg02
Rope1_Seg04 Rope1_Seg03
Rope1_Seg05 Rope1_Seg04
Rope1_Seg06 Rope1_Seg05
Rope1_Seg07 Rope1_Seg06
Rope1_Seg09 Rope1_Seg07
L_mid_hand01 Rope1_Seg09
L_mid_hand02 Rope1_Seg09
L_mid_hand03 Rope1_Seg09
null_rope02_connect R_mid_tent01
Rope2_Seg01 null_rope02_connect
Rope2_Seg02 Rope2_Seg01
Rope2_Seg03 Rope2_Seg02
Rope2_Seg04 Rope2_Seg03
Rope2_Seg05 Rope2_Seg04
Rope2_Seg06 Rope2_Seg05
Rope2_Seg07 Rope2_Seg06
Rope2_Seg09 Rope2_Seg07
R_mid_hand01 Rope2_Seg09
R_mid_hand02 Rope2_Seg09
R_mid_hand03 Rope2_Seg09
spine02 spine01
spine03 spine02
pelvis spine03
null_rope03_connect pelvis
null_rope04_connect pelvis
Rope3_Seg01 null_rope03_connect
Rope3_Seg02 Rope3_Seg01
Rope3_Seg03 Rope3_Seg02
Rope3_Seg04 Rope3_Seg03
Rope3_Seg05 Rope3_Seg04
Rope3_Seg06 Rope3_Seg05
Rope3_Seg07 Rope3_Seg06
Rope3_Seg08 Rope3_Seg07
Rope3_Seg09 Rope3_Seg08
R_rear_hand01 Rope3_Seg09
R_rear_hand02 Rope3_Seg09
R_rear_hand03 Rope3_Seg09
Rope4_Seg01 null_rope04_connect
Rope4_Seg02 Rope4_Seg01
Rope4_Seg03 Rope4_Seg02
Rope4_Seg04 Rope4_Seg03
Rope4_Seg05 Rope4_Seg04
Rope4_Seg06 Rope4_Seg05
Rope4_Seg07 Rope4_Seg06
Rope4_Seg08 Rope4_Seg07
Rope4_Seg09 Rope4_Seg08
L_rear_hand01 Rope4_Seg09
L_rear_hand02 Rope4_Seg09
L_rear_hand03 Rope4_Seg09
[BasePosition]
#SegmentName Tx, Ty, Tz, Rx, Ry, Rz, BoneLength
MASTER 0.000000 0.000000 0.000000 -90.000000 0.000000 0.000000 10.000000 
root 0.000000 0.000000 0.000000 0.000000 0.000000 0.000000 10.000000 
chest 0.000000 0.000000 0.000000 0.000000 0.000000 0.000000 10.000000 
L_mid_tent01 0.000000 0.000000 0.000000 0.000000 0.000000 0.000000 10.000000 
R_mid_tent01 0.000000 0.000000 0.000000 0.000000 0.000000 0.000000 10.000000 
spine01 0.000000 0.000000 0.000000 0.000000 0.000000 0.000000 10.000000 
Bip01_Neck 0.000000 0.000000 0.000000 0.000000 0.000000 0.000000 10.000000 
L_humerus 0.000000 0.000000 0.000000 0.000000 0.000000 0.000000 10.000000 
R_humerus 0.000000 0.000000 0.000000 0.000000 0.000000 0.000000 10.000000 
weapon_bone 0.000000 0.000000 0.000000 0.000000 0.000000 0.000000 10.000000 
Bip01_Head 0.000000 0.000000 0.000000 0.000000 0.000000 0.000000 10.000000 
eye_left_bone 0.000000 0.000000 0.000000 0.000000 0.000000 0.000000 10.000000 
eye_right_bone 0.000000 0.000000 0.000000 0.000000 0.000000 0.000000 10.000000 
L_forearm 0.000000 0.000000 0.000000 0.000000 0.000000 0.000000 10.000000 
L_front_hand 0.000000 0.000000 0.000000 0.000000 0.000000 0.000000 10.000000 
L_weapon_bone 0.000000 0.000000 0.000000 0.000000 0.000000 0.000000 10.000000 
L_front_hand01_01 0.000000 0.000000 0.000000 0.000000 0.000000 0.000000 10.000000 
L_front_hand02_01 0.000000 0.000000 0.000000 0.000000 0.000000 0.000000 10.000000 
L_front_hand03_01 0.000000 0.000000 0.000000 0.000000 0.000000 0.000000 10.000000 
L_front_hand01_02 0.000000 0.000000 0.000000 0.000000 0.000000 0.000000 10.000000 
L_front_hand02_02 0.000000 0.000000 0.000000 0.000000 0.000000 0.000000 10.000000 
L_front_hand03_02 0.000000 0.000000 0.000000 0.000000 0.000000 0.000000 10.000000 
R_forearm 0.000000 0.000000 0.000000 0.000000 0.000000 0.000000 10.000000 
R_front_hand 0.000000 0.000000 0.000000 0.000000 0.000000 0.000000 10.000000 
R_weapon_bone 0.000000 0.000000 0.000000 0.000000 0.000000 0.000000 10.000000 
R_front_hand01_01 0.000000 0.000000 0.000000 0.000000 0.000000 0.000000 10.000000 
R_front_hand02_01 0.000000 0.000000 0.000000 0.000000 0.000000 0.000000 10.000000 
R_front_hand03_01 0.000000 0.000000 0.000000 0.000000 0.000000 0.000000 10.000000 
R_front_hand01_02 0.000000 0.000000 0.000000 0.000000 0.000000 0.000000 10.000000 
R_front_hand02_02 0.000000 0.000000 0.000000 0.000000 0.000000 0.000000 10.000000 
R_front_hand03_02 0.000000 0.000000 0.000000 0.000000 0.000000 0.000000 10.000000 
null_rope01_connect 0.000000 0.000000 0.000000 0.000000 0.000000 0.000000 10.000000 
Rope1_Seg01 0.000000 0.000000 0.000000 0.000000 0.000000 0.000000 10.000000 
Rope1_Seg02 0.000000 0.000000 0.000000 0.000000 0.000000 0.000000 10.000000 
Rope1_Seg03 0.000000 0.000000 0.000000 0.000000 0.000000 0.000000 10.000000 
Rope1_Seg04 0.000000 0.000000 0.000000 0.000000 0.000000 0.000000 10.000000 
Rope1_Seg05 0.000000 0.000000 0.000000 0.000000 0.000000 0.000000 10.000000 
Rope1_Seg06 0.000000 0.000000 0.000000 0.000000 0.000000 0.000000 10.000000 
Rope1_Seg07 0.000000 0.000000 0.000000 0.000000 0.000000 0.000000 10.000000 
Rope1_Seg09 0.000000 0.000000 0.000000 0.000000 0.000000 0.000000 10.000000 
L_mid_hand01 0.000000 0.000000 0.000000 0.000000 0.000000 0.000000 10.000000 
L_mid_hand02 0.000000 0.000000 0.000000 0.000000 0.000000 0.000000 10.000000 
L_mid_hand03 0.000000 0.000000 0.000000 0.000000 0.000000 0.000000 10.000000 
null_rope02_connect 0.000000 0.000000 0.000000 0.000000 0.000000 0.000000 10.000000 
Rope2_Seg01 0.000000 0.000000 0.000000 0.000000 0.000000 0.000000 10.000000 
Rope2_Seg02 0.000000 0.000000 0.000000 0.000000 0.000000 0.000000 10.000000 
Rope2_Seg03 0.000000 0.000000 0.000000 0.000000 0.000000 0.000000 10.000000 
Rope2_Seg04 0.000000 0.000000 0.000000 0.000000 0.000000 0.000000 10.000000 
Rope2_Seg05 0.000000 0.000000 0.000000 0.000000 0.000000 0.000000 10.000000 
Rope2_Seg06 0.000000 0.000000 0.000000 0.000000 0.000000 0.000000 10.000000 
Rope2_Seg07 0.000000 0.000000 0.000000 0.000000 0.000000 0.000000 10.000000 
Rope2_Seg09 0.000000 0.000000 0.000000 0.000000 0.000000 0.000000 10.000000 
R_mid_hand01 0.000000 0.000000 0.000000 0.000000 0.000000 0.000000 10.000000 
R_mid_hand02 0.000000 0.000000 0.000000 0.000000 0.000000 0.000000 10.000000 
R_mid_hand03 0.000000 0.000000 0.000000 0.000000 0.000000 0.000000 10.000000 
spine02 0.000000 0.000000 0.000000 0.000000 0.000000 0.000000 10.000000 
spine03 0.000000 0.000000 0.000000 0.000000 0.000000 0.000000 10.000000 
pelvis 0.000000 0.000000 0.000000 0.000000 0.000000 0.000000 10.000000 
null_rope03_connect 0.000000 0.000000 0.000000 0.000000 0.000000 0.000000 10.000000 
null_rope04_connect 0.000000 0.000000 0.000000 0.000000 0.000000 0.000000 10.000000 
Rope3_Seg01 0.000000 0.000000 0.000000 0.000000 0.000000 0.000000 10.000000 
Rope3_Seg02 0.000000 0.000000 0.000000 0.000000 0.000000 0.000000 10.000000 
Rope3_Seg03 0.000000 0.000000 0.000000 0.000000 0.000000 0.000000 10.000000 
Rope3_Seg04 0.000000 0.000000 0.000000 0.000000 0.000000 0.000000 10.000000 
Rope3_Seg05 0.000000 0.000000 0.000000 0.000000 0.000000 0.000000 10.000000 
Rope3_Seg06 0.000000 0.000000 0.000000 0.000000 0.000000 0.000000 10.000000 
Rope3_Seg07 0.000000 0.000000 0.000000 0.000000 0.000000 0.000000 10.000000 
Rope3_Seg08 0.000000 0.000000 0.000000 0.000000 0.000000 0.000000 10.000000 
Rope3_Seg09 0.000000 0.000000 0.000000 0.000000 0.000000 0.000000 10.000000 
R_rear_hand01 0.000000 0.000000 0.000000 0.000000 0.000000 0.000000 10.000000 
R_rear_hand02 0.000000 0.000000 0.000000 0.000000 0.000000 0.000000 10.000000 
R_rear_hand03 0.000000 0.000000 0.000000 0.000000 0.000000 0.000000 10.000000 
Rope4_Seg01 0.000000 0.000000 0.000000 0.000000 0.000000 0.000000 10.000000 
Rope4_Seg02 0.000000 0.000000 0.000000 0.000000 0.000000 0.000000 10.000000 
Rope4_Seg03 0.000000 0.000000 0.000000 0.000000 0.000000 0.000000 10.000000 
Rope4_Seg04 0.000000 0.000000 0.000000 0.000000 0.000000 0.000000 10.000000 
Rope4_Seg05 0.000000 0.000000 0.000000 0.000000 0.000000 0.000000 10.000000 
Rope4_Seg06 0.000000 0.000000 0.000000 0.000000 0.000000 0.000000 10.000000 
Rope4_Seg07 0.000000 0.000000 0.000000 0.000000 0.000000 0.000000 10.000000 
Rope4_Seg08 0.000000 0.000000 0.000000 0.000000 0.000000 0.000000 10.000000 
Rope4_Seg09 0.000000 0.000000 0.000000 0.000000 0.000000 0.000000 10.000000 
L_rear_hand01 0.000000 0.000000 0.000000 0.000000 0.000000 0.000000 10.000000 
L_rear_hand02 0.000000 0.000000 0.000000 0.000000 0.000000 0.000000 10.000000 
L_rear_hand03 0.000000 0.000000 0.000000 0.000000 0.000000 0.000000 10.000000 
#Beginning of Data. Separated by tabs
#Fr	Tx	Ty	Tz	Rx	Ry	Rz	SF
[MASTER]
21 -1354.124390 163.131348 1515.048706 0.001660 0.001660 0.001660 2038.538086
22 -1354.124390 163.131348 1515.048706 0.001660 0.001660 0.001660 2038.538086
[root]
21 20.013123 -118.897354 462.015350 -163.700409 -13.516711 -70.871201 477.488556
22 20.013123 -118.897354 462.015350 -164.100662 -13.419080 -70.726410 477.488556
[chest]
21 -84.512650 -34.090519 0.000000 -39.380905 -23.392492 -179.971588 91.129311
22 -84.512650 -34.090519 0.000000 -39.886005 -23.888496 -179.589981 91.129311
[L_mid_tent01]
21 27.299145 22.179220 -249.918716 -10.904842 14.398208 38.135017 252.381714
22 27.299147 22.179224 -249.918716 -10.615908 14.390591 39.142807 252.381714
[R_mid_tent01]
21 23.228794 24.509907 226.238495 177.736816 -18.623253 32.601524 228.744751
22 23.228794 24.509907 226.238495 178.121353 -19.106735 31.816689 228.744751
[spine01]
21 -0.361383 -0.195265 0.000000 0.001958 0.001295 23.025135 0.410763
22 -0.361383 -0.195265 0.000000 0.001957 0.001295 23.008986 0.410763
[Bip01_Neck]
21 165.484543 71.581718 0.000119 176.643677 -1.657967 43.431911 180.302734
22 165.484543 71.581718 0.000119 176.643677 -1.657967 43.431911 180.302734
[L_humerus]
21 -13.983130 -135.272980 -120.471481 158.866806 68.028755 -108.737137 181.680161
22 -13.983130 -135.272980 -120.471481 157.521378 69.271706 -110.187813 181.680161
[R_humerus]
21 -13.983309 -135.273102 125.287651 -76.415482 -56.835533 177.177750 184.909012
22 -13.983309 -135.273102 125.287651 -74.317505 -56.891834 174.970444 184.909012
[weapon_bone]
21 235.964890 -300.705902 0.000000 0.000000 -89.951546 -128.212341 382.234833
22 235.964890 -300.705902 0.000000 0.000000 -89.951546 -128.212341 382.234833
[Bip01_Head]
21 213.576187 185.348038 16.520346 -16.894539 0.407038 -43.883858 283.269501
22 213.559250 185.395050 15.913086 -16.210943 0.822663 -43.879940 283.252716
[eye_left_bone]
21 -24.626970 125.451866 -64.772606 0.000000 -90.000000 -99.840431 143.318359
22 -24.626970 125.451866 -64.772606 0.000000 -90.000000 -99.840431 143.318359
[eye_right_bone]
21 -24.626970 125.451866 64.327362 0.000000 -89.965736 80.156380 143.117676
22 -24.626970 125.451866 64.327362 0.000000 -89.965736 80.156380 143.117676
[L_forearm]
21 322.776093 0.000000 -0.000119 0.000161 -0.002342 -97.889999 322.776093
22 322.776093 0.000000 -0.000119 0.000167 -0.002341 -98.160271 322.776093
[L_front_hand]
21 241.149185 -0.042021 -3.300071 176.586792 -1.838029 -27.422977 241.171753
22 241.149185 -0.042021 -3.300071 178.633942 -1.836973 -27.425039 241.171753
[L_weapon_bone]
21 156.183838 0.000000 0.000000 0.000014 0.000007 0.000001 156.183838
22 156.183838 0.000000 0.000000 0.000014 0.000007 0.000001 156.183838
[L_front_hand01_01]
21 86.095154 20.947098 -0.655860 -0.149615 -0.580112 52.102089 88.609184
22 86.095154 20.947098 -0.655860 -0.132125 -0.586460 50.417980 88.609184
[L_front_hand02_01]
21 86.935165 -11.437475 24.513514 129.904388 -45.142246 -31.009527 91.046425
22 86.935165 -11.437475 24.513514 128.856232 -43.841438 -29.509521 91.046425
[L_front_hand03_01]
21 86.637497 -14.123976 -20.424902 -130.829132 43.489609 -33.408222 90.126129
22 86.637497 -14.123976 -20.424902 -129.824921 42.202732 -31.926975 90.126129
[L_front_hand01_02]
21 71.020905 -0.000179 0.000030 0.000068 -0.002346 -93.337067 71.020905
22 71.020905 -0.000179 0.000030 0.000073 0.002346 -86.459084 71.020905
[L_front_hand02_02]
21 71.020927 -0.000119 0.000060 0.000068 -0.002346 -93.337067 71.020927
22 71.020927 -0.000119 0.000060 0.000073 0.002346 -86.459084 71.020927
[L_front_hand03_02]
21 71.020905 -0.000060 0.000060 0.000068 -0.002346 -93.337067 71.020905
22 71.020905 -0.000060 0.000060 0.000073 0.002346 -86.459084 71.020905
[R_forearm]
21 322.776428 -0.000060 0.000030 0.212533 0.020110 -96.438873 322.776428
22 322.776428 -0.000060 0.000030 0.212485 0.020617 -96.712143 322.776428
[R_front_hand]
21 238.847015 -0.006795 2.210259 -2.635298 -10.645461 -26.312506 238.857239
22 238.847015 -0.006795 2.210259 -2.635298 -10.645461 -26.312506 238.857239
[R_weapon_bone]
21 155.664093 0.002503 -0.000030 0.003487 0.001180 -90.988930 155.664078
22 155.664093 0.002503 -0.000030 0.003487 0.001180 -90.988930 155.664078
[R_front_hand01_01]
21 87.624611 14.231146 22.918642 -147.366226 -57.494873 53.245708 91.683487
22 87.624611 14.231146 22.918642 -150.820541 -58.784569 57.311836 91.683487
[R_front_hand02_01]
21 89.356956 14.367283 -19.491137 147.772629 55.873177 55.617874 92.579636
22 89.356956 14.367283 -19.491137 151.027069 57.144753 59.518578 92.579636
[R_front_hand03_01]
21 87.286232 -22.307278 -0.143439 0.124412 -0.437303 -70.732681 90.091743
22 87.286232 -22.307278 -0.143439 0.144811 -0.432555 -73.232849 90.091743
[R_front_hand01_02]
21 71.020905 0.000060 0.000119 0.002323 -0.000334 106.381714 71.020905
22 71.020905 0.000060 0.000119 0.002323 -0.000334 106.381714 71.020905
[R_front_hand02_02]
21 71.020844 -0.000030 -0.000119 0.002323 -0.000334 106.381714 71.020836
22 71.020844 -0.000030 -0.000119 0.002323 -0.000334 106.381714 71.020836
[R_front_hand03_02]
21 71.020905 0.000000 0.000030 0.002323 -0.000334 106.381714 71.020905
22 71.020905 0.000000 0.000030 0.002323 -0.000334 106.381714 71.020905
[null_rope01_connect]
21 328.732483 0.000000 -0.000238 -162.725555 -4.642174 -111.855705 328.732483
22 328.732483 0.000000 -0.000238 -162.865723 -4.381430 -112.624825 328.732483
[Rope1_Seg01]
21 0.000087 -0.000060 0.000065 17.283337 -69.145996 94.079224 0.000124
22 0.000092 -0.000061 0.000061 19.708414 -68.628410 91.411446 0.000126
[Rope1_Seg02]
21 139.999863 -0.000179 0.000000 0.457314 5.515506 0.721851 139.999863
22 139.999863 -0.000179 0.000000 0.409574 5.445650 0.976755 139.999863
[Rope1_Seg03]
21 139.999924 0.000060 -0.000060 0.227401 9.193873 1.141304 139.999924
22 139.999924 0.000060 -0.000060 0.196953 9.104520 1.580218 139.999924
[Rope1_Seg04]
21 139.999924 -0.000060 -0.000119 -2.436358 21.259272 0.148348 139.999924
22 139.999924 -0.000060 -0.000119 -2.341942 21.309534 1.106348 139.999924
[Rope1_Seg05]
21 139.999832 0.000119 -0.000060 -10.361623 29.877611 3.898173 139.999832
22 139.999832 0.000119 -0.000060 -9.032682 28.728733 6.422335 139.999832
[Rope1_Seg06]
21 139.999954 0.000119 -0.000060 -5.489959 -1.751419 23.209406 139.999954
22 139.999954 0.000119 -0.000060 -4.916389 -1.315068 23.777002 139.999954
[Rope1_Seg07]
21 139.999985 0.000060 0.000000 -0.927034 -2.711022 23.337166 139.999985
22 139.999985 0.000060 0.000000 -0.099748 -0.190877 21.367188 139.999985
[Rope1_Seg09]
21 121.602913 0.000119 -0.000089 -89.793175 -1.359789 0.847147 121.602913
22 121.602913 0.000119 -0.000089 -89.793175 -1.359789 0.847147 121.602913
[L_mid_hand01]
21 103.859421 1.038730 8.195221 112.678780 -49.980732 -18.276028 104.187431
22 103.859421 1.038730 8.195221 114.394852 -53.111439 -20.468830 104.187431
[L_mid_hand02]
21 105.572853 -4.139662 -10.864139 -152.571289 36.560638 -48.342640 106.211075
22 105.572853 -4.139662 -10.864139 -154.909470 38.072205 -52.197872 106.211075
[L_mid_hand03]
21 104.641464 17.579376 -3.913581 -11.926215 14.597148 53.941067 106.179977
22 104.641464 17.579376 -3.913581 -11.031654 15.280054 57.403896 106.179977
[null_rope02_connect]
21 328.732849 0.000179 -0.000119 -12.651052 20.551714 95.487328 328.732849
22 328.732849 0.000179 -0.000119 -13.074043 20.317997 94.598633 328.732849
[Rope2_Seg01]
21 0.000104 0.000136 -0.000087 87.514999 68.501167 25.802492 0.000192
22 0.000107 0.000137 -0.000092 84.324707 69.053589 22.180542 0.000197
[Rope2_Seg02]
21 139.999741 -0.000060 -0.000119 -0.704453 21.986034 -16.545238 139.999756
22 139.999741 -0.000060 -0.000119 -0.927113 21.064150 -14.844733 139.999756
[Rope2_Seg03]
21 140.000107 0.000030 0.000000 8.152170 20.219934 -17.794847 140.000107
22 140.000107 0.000030 0.000000 7.125064 24.856174 -19.937845 140.000107
[Rope2_Seg04]
21 139.999802 0.000000 -0.000060 21.746687 10.083147 -11.727254 139.999802
22 139.999802 0.000000 -0.000060 37.439728 12.500207 -13.865430 139.999802
[Rope2_Seg05]
21 139.999985 -0.000060 0.000119 66.497025 7.055856 -13.225220 139.999985
22 139.999985 -0.000060 0.000119 66.007980 2.283463 -11.642924 139.999985
[Rope2_Seg06]
21 139.999893 -0.000030 -0.000119 47.021870 -8.594871 -11.311109 139.999893
22 139.999893 -0.000030 -0.000119 30.338259 -8.318470 -6.259569 139.999893
[Rope2_Seg07]
21 139.999893 0.000060 -0.000060 8.444617 -8.718472 -0.628308 139.999893
22 139.999893 0.000060 -0.000060 7.743381 -7.157667 -0.562832 139.999893
[Rope2_Seg09]
21 121.338966 0.000089 -0.000060 33.793236 -1.359788 -0.847141 121.338966
22 121.338966 0.000089 -0.000060 33.793236 -1.359788 -0.847141 121.338966
[R_mid_hand01]
21 104.680779 11.144459 -10.335981 -37.204075 31.906813 37.576267 105.778534
22 104.680779 11.144459 -10.335981 -36.871494 32.306065 38.202835 105.778534
[R_mid_hand02]
21 104.070427 2.443552 8.231699 70.367462 -42.427391 14.067811 104.424065
22 104.070427 2.443552 8.231699 70.157997 -43.050724 14.375076 104.424065
[R_mid_hand03]
21 106.028137 -11.221827 -5.996406 -169.893616 12.226658 -47.211018 106.788818
22 106.028137 -11.221827 -5.996406 -170.040359 12.343988 -47.884888 106.788818
[spine02]
21 129.756927 0.001550 0.000119 -0.817027 -3.975672 3.757111 129.756927
22 129.756927 0.001550 0.000119 -0.791472 -3.981226 3.375045 129.756927
[spine03]
21 78.614044 0.081264 -4.898991 1.175510 4.108715 6.099454 78.766579
22 78.614044 0.081238 -4.898991 1.192026 4.104215 6.332949 78.766579
[pelvis]
21 169.435242 0.051022 0.000000 0.008264 -0.191074 -6.921585 169.435257
22 169.435242 0.051022 0.000000 0.007463 -0.191109 -6.441094 169.435257
[null_rope03_connect]
21 -1.257226 -2.466202 137.391083 -172.638153 -19.718266 -96.094978 137.418976
22 -1.257226 -2.466202 137.391083 -172.642807 -19.354151 -96.305023 137.418976
[null_rope04_connect]
21 -1.259640 -2.480268 -137.844437 -172.638153 -19.718266 -96.094978 137.872513
22 -1.259640 -2.480268 -137.844437 -172.642807 -19.354151 -96.305023 137.872513
[Rope3_Seg01]
21 0.000000 0.000000 0.000000 22.563957 14.849523 -51.856274 0.000000
22 0.000000 0.000000 0.000000 24.057524 18.023941 -52.832336 0.000000
[Rope3_Seg02]
21 139.999924 -0.000119 0.000060 5.876692 12.649746 -27.644373 139.999924
22 139.999924 -0.000119 0.000060 5.553102 10.202514 -25.423483 139.999924
[Rope3_Seg03]
21 139.999924 -0.000119 0.000119 -7.641260 12.218279 -44.482052 139.999924
22 139.999924 -0.000119 0.000119 -6.700370 10.445809 -43.989929 139.999924
[Rope3_Seg04]
21 139.999924 0.000119 0.000000 -7.626268 6.118289 -17.058691 139.999924
22 139.999924 0.000119 0.000000 -8.827048 5.925438 -19.427113 139.999924
[Rope3_Seg05]
21 139.999924 -0.000238 0.000060 -8.603059 5.916346 -13.228500 139.999924
22 139.999924 -0.000238 0.000060 -10.408567 6.620140 -14.254109 139.999924
[Rope3_Seg06]
21 139.999893 -0.000119 -0.000060 -22.435925 12.907987 -22.087149 139.999893
22 139.999893 -0.000119 -0.000060 -24.008896 14.163607 -21.233578 139.999893
[Rope3_Seg07]
21 139.999771 0.000060 -0.000119 -18.965351 15.337442 -12.598001 139.999771
22 139.999771 0.000060 -0.000119 -16.724180 14.739033 -10.145498 139.999771
[Rope3_Seg08]
21 139.999985 -0.000060 0.000000 -7.193263 8.804228 -3.415858 139.999985
22 139.999985 -0.000060 0.000000 -6.288803 8.196546 -2.748703 139.999985
[Rope3_Seg09]
21 90.185997 -0.000179 -0.000060 89.793228 -1.359877 -0.847183 90.185997
22 90.185997 -0.000179 -0.000060 89.793228 -1.359877 -0.847183 90.185997
[R_rear_hand01]
21 103.366196 -6.073594 -10.757982 -174.362549 -18.774185 -51.088318 104.101845
22 103.366196 -6.073594 -10.757982 -175.033279 -18.440657 -52.427647 104.101845
[R_rear_hand02]
21 100.509819 12.039542 -7.992327 -30.544968 25.097786 38.729183 101.543350
22 100.509819 12.039542 -7.992327 -29.842968 25.960022 40.362484 101.543350
[R_rear_hand03]
21 101.539970 5.215704 5.435467 82.376854 -41.657902 8.948386 101.819031
22 101.539970 5.215704 5.435467 82.169113 -43.351929 9.256878 101.819031
[Rope4_Seg01]
21 0.000010 0.000016 -0.000065 -111.362305 -19.098406 -57.264072 0.000068
22 0.000010 0.000015 -0.000061 -114.970566 -21.706196 -55.090988 0.000064
[Rope4_Seg02]
21 139.999985 0.000060 0.000119 -13.107194 24.537378 -7.929678 139.999985
22 139.999985 0.000060 0.000119 -12.112833 25.897829 -5.767875 139.999985
[Rope4_Seg03]
21 139.999924 0.000000 -0.000238 -4.292112 40.475075 -4.134207 139.999924
22 139.999924 0.000000 -0.000238 -2.102230 40.573891 0.242407 139.999924
[Rope4_Seg04]
21 139.999985 0.000000 0.000119 3.319916 20.577379 -0.220176 139.999985
22 139.999985 0.000000 0.000119 3.039048 19.613186 1.656785 139.999985
[Rope4_Seg05]
21 139.999802 -0.000060 -0.000119 4.148733 10.884897 -1.855038 139.999802
22 139.999802 -0.000060 -0.000119 4.622364 11.794600 -1.735078 139.999802
[Rope4_Seg06]
21 139.999924 0.000000 0.000060 15.658783 20.683825 -7.074115 139.999924
22 139.999924 0.000000 0.000060 20.733297 23.777683 -8.857865 139.999924
[Rope4_Seg07]
21 139.999802 0.000000 0.000000 41.877991 26.235832 -20.091278 139.999802
22 139.999802 0.000000 0.000000 41.038868 22.438295 -21.122288 139.999802
[Rope4_Seg08]
21 139.999924 0.000000 0.000119 18.130394 2.669053 -16.541599 139.999924
22 139.999924 0.000000 0.000119 14.933618 1.173020 -14.575467 139.999924
[Rope4_Seg09]
21 90.185791 0.000060 0.000060 -135.617828 2.228885 0.850567 90.185791
22 90.185791 0.000060 0.000060 -135.617828 2.228885 0.850567 90.185791
[L_rear_hand01]
21 101.696655 -8.392275 -7.654577 -24.658646 -30.887184 128.783096 102.329041
22 101.696655 -8.392275 -7.654577 -22.991795 -32.088032 125.593971 102.329041
[L_rear_hand02]
21 102.726799 -1.568258 5.773216 80.302322 53.966492 168.267426 102.900848
22 102.726799 -1.568258 5.773216 79.542931 56.888847 167.348526 102.900848
[L_rear_hand03]
21 104.552910 9.721220 -10.420293 -169.691238 -22.530384 -125.995583 105.519653
22 104.552910 9.721220 -10.420293 -170.919907 -23.031248 -122.815849 105.519653
